<svg width="1270" height="720" viewBox="0 0 1270 720" fill="none" xmlns="http://www.w3.org/2000/svg">
<g clip-path="url(#clip0_54_3)">
<rect width="1270" height="720" rx="28" fill="#FEFFFF"/>
<path d="M-2 42.6C-2 30.8711 -2 25.0066 -0.382561 20.2825C2.62064 11.5108 9.51085 4.62064 18.2825 1.61744C23.0066 0 28.8711 0 40.6 0H128V720H40.6C28.8711 720 23.0066 720 18.2825 718.383C9.51085 715.379 2.62064 708.489 -0.382561 699.718C-2 694.993 -2 689.129 -2 677.4V42.6Z" fill="#023047"/>
<g filter="url(#filter0_i_54_3)">
<rect x="137" y="195" width="1126" height="520" rx="23" fill="#E0EEF4"/>
<g clip-path="url(#clip1_54_3)">
<g filter="url(#filter1_d_54_3)">
<path d="M1253 216.5C1253 209.32 1247.18 203.5 1240 203.5H778C770.82 203.5 765 209.32 765 216.5V376.5C765 383.68 770.82 389.5 778 389.5H1240C1247.18 389.5 1253 383.68 1253 376.5V216.5Z" fill="white" fill-opacity="0.8" shape-rendering="crispEdges"/>
<path d="M778 203.25C770.682 203.25 764.75 209.182 764.75 216.5V376.5C764.75 383.818 770.682 389.75 778 389.75H1240C1247.32 389.75 1253.25 383.818 1253.25 376.5V216.5C1253.25 209.182 1247.32 203.25 1240 203.25H778Z" stroke="white" stroke-opacity="0.5" stroke-width="0.5" shape-rendering="crispEdges"/>
</g>
<g filter="url(#filter2_d_54_3)">
<rect width="245" height="186" rx="13" transform="matrix(-1 0 0 1 752 203.5)" fill="white" fill-opacity="0.8" shape-rendering="crispEdges"/>
<rect x="-0.25" y="0.25" width="244.5" height="185.5" rx="12.75" transform="matrix(-1 0 0 1 751.5 203.5)" stroke="white" stroke-width="0.5" shape-rendering="crispEdges"/>
</g>
<g filter="url(#filter3_d_54_3)">
<path d="M494 216.5C494 209.32 488.18 203.5 481 203.5H152C144.82 203.5 139 209.32 139 216.5V376.5C139 383.68 144.82 389.5 152 389.5H481C488.18 389.5 494 383.68 494 376.5V216.5Z" fill="white" fill-opacity="0.8" shape-rendering="crispEdges"/>
<path d="M481 203.75H152C144.958 203.75 139.25 209.458 139.25 216.5V376.5C139.25 383.542 144.958 389.25 152 389.25H481C488.042 389.25 493.75 383.542 493.75 376.5V216.5C493.75 209.458 488.042 203.75 481 203.75Z" stroke="white" stroke-width="0.5" shape-rendering="crispEdges"/>
</g>
</g>
<g clip-path="url(#clip2_54_3)">
<g filter="url(#filter4_d_54_3)">
<path d="M145.5 422.5C145.5 415.32 151.32 409.5 158.5 409.5H680.5C687.68 409.5 693.5 415.32 693.5 422.5V691.5C693.5 698.68 687.68 704.5 680.5 704.5H158.5C151.32 704.5 145.5 698.68 145.5 691.5V422.5Z" fill="white" fill-opacity="0.85" shape-rendering="crispEdges"/>
</g>
<g filter="url(#filter5_d_54_3)">
<path d="M706.5 422.5C706.5 415.32 712.32 409.5 719.5 409.5H1241.5C1248.68 409.5 1254.5 415.32 1254.5 422.5V691.5C1254.5 698.68 1248.68 704.5 1241.5 704.5H719.5C712.32 704.5 706.5 698.68 706.5 691.5V422.5Z" fill="white" fill-opacity="0.85" shape-rendering="crispEdges"/>
<path d="M719.5 409.75H1241.5C1248.54 409.75 1254.25 415.458 1254.25 422.5V691.5C1254.25 698.542 1248.54 704.25 1241.5 704.25H719.5C712.458 704.25 706.75 698.542 706.75 691.5V422.5C706.75 415.458 712.458 409.75 719.5 409.75Z" stroke="white" stroke-width="0.5" shape-rendering="crispEdges"/>
</g>
</g>
</g>
<g clip-path="url(#clip3_54_3)">
<path d="M137 41.4C137 30.7646 137 25.4469 138.971 21.3425C140.939 17.2443 144.244 13.9388 148.343 11.9709C152.447 10 157.765 10 168.4 10H1231.6C1242.24 10 1247.55 10 1251.66 11.9709C1255.76 13.9388 1259.06 17.2443 1261.03 21.3425C1263 25.4469 1263 30.7646 1263 41.4V153.6C1263 164.235 1263 169.553 1261.03 173.657C1259.06 177.756 1255.76 181.061 1251.66 183.029C1247.55 185 1242.24 185 1231.6 185H168.4C157.765 185 152.447 185 148.343 183.029C144.244 181.061 140.939 177.756 138.971 173.657C137 169.553 137 164.235 137 153.6V41.4Z" fill="#C1E5ED"/>
<g filter="url(#filter6_dd_54_3)">
<rect width="269" height="155" rx="13" transform="matrix(-1 0 0 1 416 20)" fill="url(#paint0_linear_54_3)" fill-opacity="0.7" style="mix-blend-mode:overlay" shape-rendering="crispEdges"/>
</g>
<g filter="url(#filter7_dd_54_3)">
<rect width="269" height="155" rx="13" transform="matrix(-1 0 0 1 695 20)" fill="url(#paint1_linear_54_3)" fill-opacity="0.7" style="mix-blend-mode:overlay" shape-rendering="crispEdges"/>
</g>
<g filter="url(#filter8_dd_54_3)">
<rect width="269" height="155" rx="13" transform="matrix(-1 0 0 1 974 20)" fill="url(#paint2_linear_54_3)" fill-opacity="0.7" style="mix-blend-mode:overlay" shape-rendering="crispEdges"/>
</g>
<g filter="url(#filter9_dd_54_3)">
<rect width="269" height="155" rx="13" transform="matrix(-1 0 0 1 1253 20)" fill="url(#paint3_linear_54_3)" fill-opacity="0.7" style="mix-blend-mode:overlay" shape-rendering="crispEdges"/>
</g>
</g>
</g>
<defs>
<filter id="filter0_i_54_3" x="136" y="194" width="1127" height="521" filterUnits="userSpaceOnUse" color-interpolation-filters="sRGB">
<feFlood flood-opacity="0" result="BackgroundImageFix"/>
<feBlend mode="normal" in="SourceGraphic" in2="BackgroundImageFix" result="shape"/>
<feColorMatrix in="SourceAlpha" type="matrix" values="0 0 0 0 0 0 0 0 0 0 0 0 0 0 0 0 0 0 127 0" result="hardAlpha"/>
<feOffset dx="-1" dy="-1"/>
<feGaussianBlur stdDeviation="25"/>
<feComposite in2="hardAlpha" operator="arithmetic" k2="-1" k3="1"/>
<feColorMatrix type="matrix" values="0 0 0 0 0.963333 0 0 0 0 0.963333 0 0 0 0 0.963333 0 0 0 1 0"/>
<feBlend mode="normal" in2="shape" result="effect1_innerShadow_54_3"/>
</filter>
<filter id="filter1_d_54_3" x="760.5" y="203" width="497" height="195" filterUnits="userSpaceOnUse" color-interpolation-filters="sRGB">
<feFlood flood-opacity="0" result="BackgroundImageFix"/>
<feColorMatrix in="SourceAlpha" type="matrix" values="0 0 0 0 0 0 0 0 0 0 0 0 0 0 0 0 0 0 127 0" result="hardAlpha"/>
<feOffset dy="4"/>
<feGaussianBlur stdDeviation="2"/>
<feComposite in2="hardAlpha" operator="out"/>
<feColorMatrix type="matrix" values="0 0 0 0 0 0 0 0 0 0 0 0 0 0 0 0 0 0 0.25 0"/>
<feBlend mode="normal" in2="BackgroundImageFix" result="effect1_dropShadow_54_3"/>
<feBlend mode="normal" in="SourceGraphic" in2="effect1_dropShadow_54_3" result="shape"/>
</filter>
<filter id="filter2_d_54_3" x="503" y="203.5" width="253" height="194" filterUnits="userSpaceOnUse" color-interpolation-filters="sRGB">
<feFlood flood-opacity="0" result="BackgroundImageFix"/>
<feColorMatrix in="SourceAlpha" type="matrix" values="0 0 0 0 0 0 0 0 0 0 0 0 0 0 0 0 0 0 127 0" result="hardAlpha"/>
<feOffset dy="4"/>
<feGaussianBlur stdDeviation="2"/>
<feComposite in2="hardAlpha" operator="out"/>
<feColorMatrix type="matrix" values="0 0 0 0 0 0 0 0 0 0 0 0 0 0 0 0 0 0 0.25 0"/>
<feBlend mode="normal" in2="BackgroundImageFix" result="effect1_dropShadow_54_3"/>
<feBlend mode="normal" in="SourceGraphic" in2="effect1_dropShadow_54_3" result="shape"/>
</filter>
<filter id="filter3_d_54_3" x="135" y="203.5" width="363" height="194" filterUnits="userSpaceOnUse" color-interpolation-filters="sRGB">
<feFlood flood-opacity="0" result="BackgroundImageFix"/>
<feColorMatrix in="SourceAlpha" type="matrix" values="0 0 0 0 0 0 0 0 0 0 0 0 0 0 0 0 0 0 127 0" result="hardAlpha"/>
<feOffset dy="4"/>
<feGaussianBlur stdDeviation="2"/>
<feComposite in2="hardAlpha" operator="out"/>
<feColorMatrix type="matrix" values="0 0 0 0 0 0 0 0 0 0 0 0 0 0 0 0 0 0 0.25 0"/>
<feBlend mode="normal" in2="BackgroundImageFix" result="effect1_dropShadow_54_3"/>
<feBlend mode="normal" in="SourceGraphic" in2="effect1_dropShadow_54_3" result="shape"/>
</filter>
<filter id="filter4_d_54_3" x="141.5" y="409.5" width="556" height="303" filterUnits="userSpaceOnUse" color-interpolation-filters="sRGB">
<feFlood flood-opacity="0" result="BackgroundImageFix"/>
<feColorMatrix in="SourceAlpha" type="matrix" values="0 0 0 0 0 0 0 0 0 0 0 0 0 0 0 0 0 0 127 0" result="hardAlpha"/>
<feOffset dy="4"/>
<feGaussianBlur stdDeviation="2"/>
<feComposite in2="hardAlpha" operator="out"/>
<feColorMatrix type="matrix" values="0 0 0 0 0 0 0 0 0 0 0 0 0 0 0 0 0 0 0.25 0"/>
<feBlend mode="normal" in2="BackgroundImageFix" result="effect1_dropShadow_54_3"/>
<feBlend mode="normal" in="SourceGraphic" in2="effect1_dropShadow_54_3" result="shape"/>
</filter>
<filter id="filter5_d_54_3" x="702.5" y="409.5" width="556" height="303" filterUnits="userSpaceOnUse" color-interpolation-filters="sRGB">
<feFlood flood-opacity="0" result="BackgroundImageFix"/>
<feColorMatrix in="SourceAlpha" type="matrix" values="0 0 0 0 0 0 0 0 0 0 0 0 0 0 0 0 0 0 127 0" result="hardAlpha"/>
<feOffset dy="4"/>
<feGaussianBlur stdDeviation="2"/>
<feComposite in2="hardAlpha" operator="out"/>
<feColorMatrix type="matrix" values="0 0 0 0 0 0 0 0 0 0 0 0 0 0 0 0 0 0 0.25 0"/>
<feBlend mode="normal" in2="BackgroundImageFix" result="effect1_dropShadow_54_3"/>
<feBlend mode="normal" in="SourceGraphic" in2="effect1_dropShadow_54_3" result="shape"/>
</filter>
<filter id="filter6_dd_54_3" x="146" y="17" width="295" height="181" filterUnits="userSpaceOnUse" color-interpolation-filters="sRGB">
<feFlood flood-opacity="0" result="BackgroundImageFix"/>
<feColorMatrix in="SourceAlpha" type="matrix" values="0 0 0 0 0 0 0 0 0 0 0 0 0 0 0 0 0 0 127 0" result="hardAlpha"/>
<feMorphology radius="1" operator="erode" in="SourceAlpha" result="effect1_dropShadow_54_3"/>
<feOffset dx="1" dy="1"/>
<feGaussianBlur stdDeviation="1"/>
<feComposite in2="hardAlpha" operator="out"/>
<feColorMatrix type="matrix" values="0 0 0 0 0.914933 0 0 0 0 0.931644 0 0 0 0 0.94 0 0 0 0.6 0"/>
<feBlend mode="normal" in2="BackgroundImageFix" result="effect1_dropShadow_54_3"/>
<feColorMatrix in="SourceAlpha" type="matrix" values="0 0 0 0 0 0 0 0 0 0 0 0 0 0 0 0 0 0 127 0" result="hardAlpha"/>
<feMorphology radius="1" operator="erode" in="SourceAlpha" result="effect2_dropShadow_54_3"/>
<feOffset dx="12" dy="10"/>
<feGaussianBlur stdDeviation="7"/>
<feComposite in2="hardAlpha" operator="out"/>
<feColorMatrix type="matrix" values="0 0 0 0 0.635345 0 0 0 0 0.680671 0 0 0 0 0.703333 0 0 0 0.7 0"/>
<feBlend mode="normal" in2="effect1_dropShadow_54_3" result="effect2_dropShadow_54_3"/>
<feBlend mode="normal" in="SourceGraphic" in2="effect2_dropShadow_54_3" result="shape"/>
</filter>
<filter id="filter7_dd_54_3" x="425" y="17" width="295" height="181" filterUnits="userSpaceOnUse" color-interpolation-filters="sRGB">
<feFlood flood-opacity="0" result="BackgroundImageFix"/>
<feColorMatrix in="SourceAlpha" type="matrix" values="0 0 0 0 0 0 0 0 0 0 0 0 0 0 0 0 0 0 127 0" result="hardAlpha"/>
<feMorphology radius="1" operator="erode" in="SourceAlpha" result="effect1_dropShadow_54_3"/>
<feOffset dx="1" dy="1"/>
<feGaussianBlur stdDeviation="1"/>
<feComposite in2="hardAlpha" operator="out"/>
<feColorMatrix type="matrix" values="0 0 0 0 0.914933 0 0 0 0 0.931644 0 0 0 0 0.94 0 0 0 0.6 0"/>
<feBlend mode="normal" in2="BackgroundImageFix" result="effect1_dropShadow_54_3"/>
<feColorMatrix in="SourceAlpha" type="matrix" values="0 0 0 0 0 0 0 0 0 0 0 0 0 0 0 0 0 0 127 0" result="hardAlpha"/>
<feMorphology radius="1" operator="erode" in="SourceAlpha" result="effect2_dropShadow_54_3"/>
<feOffset dx="12" dy="10"/>
<feGaussianBlur stdDeviation="7"/>
<feComposite in2="hardAlpha" operator="out"/>
<feColorMatrix type="matrix" values="0 0 0 0 0.635345 0 0 0 0 0.680671 0 0 0 0 0.703333 0 0 0 0.7 0"/>
<feBlend mode="normal" in2="effect1_dropShadow_54_3" result="effect2_dropShadow_54_3"/>
<feBlend mode="normal" in="SourceGraphic" in2="effect2_dropShadow_54_3" result="shape"/>
</filter>
<filter id="filter8_dd_54_3" x="704" y="17" width="295" height="181" filterUnits="userSpaceOnUse" color-interpolation-filters="sRGB">
<feFlood flood-opacity="0" result="BackgroundImageFix"/>
<feColorMatrix in="SourceAlpha" type="matrix" values="0 0 0 0 0 0 0 0 0 0 0 0 0 0 0 0 0 0 127 0" result="hardAlpha"/>
<feMorphology radius="1" operator="erode" in="SourceAlpha" result="effect1_dropShadow_54_3"/>
<feOffset dx="1" dy="1"/>
<feGaussianBlur stdDeviation="1"/>
<feComposite in2="hardAlpha" operator="out"/>
<feColorMatrix type="matrix" values="0 0 0 0 0.914933 0 0 0 0 0.931644 0 0 0 0 0.94 0 0 0 0.6 0"/>
<feBlend mode="normal" in2="BackgroundImageFix" result="effect1_dropShadow_54_3"/>
<feColorMatrix in="SourceAlpha" type="matrix" values="0 0 0 0 0 0 0 0 0 0 0 0 0 0 0 0 0 0 127 0" result="hardAlpha"/>
<feMorphology radius="1" operator="erode" in="SourceAlpha" result="effect2_dropShadow_54_3"/>
<feOffset dx="12" dy="10"/>
<feGaussianBlur stdDeviation="7"/>
<feComposite in2="hardAlpha" operator="out"/>
<feColorMatrix type="matrix" values="0 0 0 0 0.635345 0 0 0 0 0.680671 0 0 0 0 0.703333 0 0 0 0.7 0"/>
<feBlend mode="normal" in2="effect1_dropShadow_54_3" result="effect2_dropShadow_54_3"/>
<feBlend mode="normal" in="SourceGraphic" in2="effect2_dropShadow_54_3" result="shape"/>
</filter>
<filter id="filter9_dd_54_3" x="983" y="17" width="295" height="181" filterUnits="userSpaceOnUse" color-interpolation-filters="sRGB">
<feFlood flood-opacity="0" result="BackgroundImageFix"/>
<feColorMatrix in="SourceAlpha" type="matrix" values="0 0 0 0 0 0 0 0 0 0 0 0 0 0 0 0 0 0 127 0" result="hardAlpha"/>
<feMorphology radius="1" operator="erode" in="SourceAlpha" result="effect1_dropShadow_54_3"/>
<feOffset dx="1" dy="1"/>
<feGaussianBlur stdDeviation="1"/>
<feComposite in2="hardAlpha" operator="out"/>
<feColorMatrix type="matrix" values="0 0 0 0 0.914933 0 0 0 0 0.931644 0 0 0 0 0.94 0 0 0 0.6 0"/>
<feBlend mode="normal" in2="BackgroundImageFix" result="effect1_dropShadow_54_3"/>
<feColorMatrix in="SourceAlpha" type="matrix" values="0 0 0 0 0 0 0 0 0 0 0 0 0 0 0 0 0 0 127 0" result="hardAlpha"/>
<feMorphology radius="1" operator="erode" in="SourceAlpha" result="effect2_dropShadow_54_3"/>
<feOffset dx="12" dy="10"/>
<feGaussianBlur stdDeviation="7"/>
<feComposite in2="hardAlpha" operator="out"/>
<feColorMatrix type="matrix" values="0 0 0 0 0.635345 0 0 0 0 0.680671 0 0 0 0 0.703333 0 0 0 0.7 0"/>
<feBlend mode="normal" in2="effect1_dropShadow_54_3" result="effect2_dropShadow_54_3"/>
<feBlend mode="normal" in="SourceGraphic" in2="effect2_dropShadow_54_3" result="shape"/>
</filter>
<linearGradient id="paint0_linear_54_3" x1="260.962" y1="13.7115" x2="-5.26252" y2="122.817" gradientUnits="userSpaceOnUse">
<stop stop-color="white"/>
<stop offset="1" stop-color="#FCFFFF" stop-opacity="0.62"/>
</linearGradient>
<linearGradient id="paint1_linear_54_3" x1="260.962" y1="13.7115" x2="-5.26252" y2="122.817" gradientUnits="userSpaceOnUse">
<stop stop-color="white"/>
<stop offset="1" stop-color="#FCFFFF" stop-opacity="0.62"/>
</linearGradient>
<linearGradient id="paint2_linear_54_3" x1="260.962" y1="13.7115" x2="-5.26252" y2="122.817" gradientUnits="userSpaceOnUse">
<stop stop-color="white"/>
<stop offset="1" stop-color="#FCFFFF" stop-opacity="0.62"/>
</linearGradient>
<linearGradient id="paint3_linear_54_3" x1="260.962" y1="13.7115" x2="-5.26252" y2="122.817" gradientUnits="userSpaceOnUse">
<stop stop-color="white"/>
<stop offset="1" stop-color="#FCFFFF" stop-opacity="0.62"/>
</linearGradient>
<clipPath id="clip0_54_3">
<rect width="1270" height="720" rx="28" fill="white"/>
</clipPath>
<clipPath id="clip1_54_3">
<rect width="1106" height="191" rx="15" transform="matrix(-1 0 0 1 1253 203.5)" fill="white"/>
</clipPath>
<clipPath id="clip2_54_3">
<rect x="147" y="407.5" width="1106" height="299" rx="15" fill="white"/>
</clipPath>
<clipPath id="clip3_54_3">
<path d="M137 41.4C137 30.7646 137 25.4469 138.971 21.3425C140.939 17.2443 144.244 13.9388 148.343 11.9709C152.447 10 157.765 10 168.4 10H1231.6C1242.24 10 1247.55 10 1251.66 11.9709C1255.76 13.9388 1259.06 17.2443 1261.03 21.3425C1263 25.4469 1263 30.7646 1263 41.4V153.6C1263 164.235 1263 169.553 1261.03 173.657C1259.06 177.756 1255.76 181.061 1251.66 183.029C1247.55 185 1242.24 185 1231.6 185H168.4C157.765 185 152.447 185 148.343 183.029C144.244 181.061 140.939 177.756 138.971 173.657C137 169.553 137 164.235 137 153.6V41.4Z" fill="white"/>
</clipPath>
</defs>
</svg>
